<mxfile host="65bd71144e">
    <diagram id="JMrShkjUMtToKPAvOLMi" name="PÃ¡gina-1">
        <mxGraphModel dx="1552" dy="1211" grid="1" gridSize="10" guides="1" tooltips="1" connect="1" arrows="1" fold="1" page="1" pageScale="1" pageWidth="827" pageHeight="1169" math="0" shadow="0">
            <root>
                <mxCell id="0"/>
                <mxCell id="1" parent="0"/>
                <mxCell id="10" value="" style="shape=table;startSize=0;container=1;collapsible=0;childLayout=tableLayout;" parent="1" vertex="1">
                    <mxGeometry x="324" y="290" width="180" height="190" as="geometry"/>
                </mxCell>
                <mxCell id="11" value="" style="shape=tableRow;horizontal=0;startSize=0;swimlaneHead=0;swimlaneBody=0;top=0;left=0;bottom=0;right=0;collapsible=0;dropTarget=0;fillColor=none;points=[[0,0.5],[1,0.5]];portConstraint=eastwest;" parent="10" vertex="1">
                    <mxGeometry width="180" height="38" as="geometry"/>
                </mxCell>
                <mxCell id="12" value="User" style="shape=partialRectangle;html=1;whiteSpace=wrap;connectable=0;overflow=hidden;fillColor=none;top=0;left=0;bottom=0;right=0;pointerEvents=1;" parent="11" vertex="1">
                    <mxGeometry width="180" height="38" as="geometry">
                        <mxRectangle width="180" height="38" as="alternateBounds"/>
                    </mxGeometry>
                </mxCell>
                <mxCell id="13" value="" style="shape=tableRow;horizontal=0;startSize=0;swimlaneHead=0;swimlaneBody=0;top=0;left=0;bottom=0;right=0;collapsible=0;dropTarget=0;fillColor=none;points=[[0,0.5],[1,0.5]];portConstraint=eastwest;" parent="10" vertex="1">
                    <mxGeometry y="38" width="180" height="76" as="geometry"/>
                </mxCell>
                <mxCell id="14" value="+ci = Int" style="shape=partialRectangle;html=1;whiteSpace=wrap;connectable=0;overflow=hidden;fillColor=none;top=0;left=0;bottom=0;right=0;pointerEvents=1;align=center;" parent="13" vertex="1">
                    <mxGeometry width="180" height="76" as="geometry">
                        <mxRectangle width="180" height="76" as="alternateBounds"/>
                    </mxGeometry>
                </mxCell>
                <mxCell id="15" value="" style="shape=tableRow;horizontal=0;startSize=0;swimlaneHead=0;swimlaneBody=0;top=0;left=0;bottom=0;right=0;collapsible=0;dropTarget=0;fillColor=none;points=[[0,0.5],[1,0.5]];portConstraint=eastwest;" parent="10" vertex="1">
                    <mxGeometry y="114" width="180" height="76" as="geometry"/>
                </mxCell>
                <mxCell id="16" value="+show: string" style="shape=partialRectangle;html=1;whiteSpace=wrap;connectable=0;overflow=hidden;fillColor=none;top=0;left=0;bottom=0;right=0;pointerEvents=1;" parent="15" vertex="1">
                    <mxGeometry width="180" height="76" as="geometry">
                        <mxRectangle width="180" height="76" as="alternateBounds"/>
                    </mxGeometry>
                </mxCell>
                <mxCell id="17" value="" style="shape=table;startSize=0;container=1;collapsible=0;childLayout=tableLayout;" parent="1" vertex="1">
                    <mxGeometry x="324" y="30" width="180" height="190" as="geometry"/>
                </mxCell>
                <mxCell id="18" value="" style="shape=tableRow;horizontal=0;startSize=0;swimlaneHead=0;swimlaneBody=0;top=0;left=0;bottom=0;right=0;collapsible=0;dropTarget=0;fillColor=none;points=[[0,0.5],[1,0.5]];portConstraint=eastwest;" parent="17" vertex="1">
                    <mxGeometry width="180" height="38" as="geometry"/>
                </mxCell>
                <mxCell id="19" value="Person" style="shape=partialRectangle;html=1;whiteSpace=wrap;connectable=0;overflow=hidden;fillColor=none;top=0;left=0;bottom=0;right=0;pointerEvents=1;" parent="18" vertex="1">
                    <mxGeometry width="180" height="38" as="geometry">
                        <mxRectangle width="180" height="38" as="alternateBounds"/>
                    </mxGeometry>
                </mxCell>
                <mxCell id="20" value="" style="shape=tableRow;horizontal=0;startSize=0;swimlaneHead=0;swimlaneBody=0;top=0;left=0;bottom=0;right=0;collapsible=0;dropTarget=0;fillColor=none;points=[[0,0.5],[1,0.5]];portConstraint=eastwest;" parent="17" vertex="1">
                    <mxGeometry y="38" width="180" height="76" as="geometry"/>
                </mxCell>
                <mxCell id="21" value="+ name: String&amp;nbsp;&lt;br&gt;+age : Int" style="shape=partialRectangle;html=1;whiteSpace=wrap;connectable=0;overflow=hidden;fillColor=none;top=0;left=0;bottom=0;right=0;pointerEvents=1;align=center;" parent="20" vertex="1">
                    <mxGeometry width="180" height="76" as="geometry">
                        <mxRectangle width="180" height="76" as="alternateBounds"/>
                    </mxGeometry>
                </mxCell>
                <mxCell id="22" value="" style="shape=tableRow;horizontal=0;startSize=0;swimlaneHead=0;swimlaneBody=0;top=0;left=0;bottom=0;right=0;collapsible=0;dropTarget=0;fillColor=none;points=[[0,0.5],[1,0.5]];portConstraint=eastwest;" parent="17" vertex="1">
                    <mxGeometry y="114" width="180" height="76" as="geometry"/>
                </mxCell>
                <mxCell id="23" value="+show: string" style="shape=partialRectangle;html=1;whiteSpace=wrap;connectable=0;overflow=hidden;fillColor=none;top=0;left=0;bottom=0;right=0;pointerEvents=1;" parent="22" vertex="1">
                    <mxGeometry width="180" height="76" as="geometry">
                        <mxRectangle width="180" height="76" as="alternateBounds"/>
                    </mxGeometry>
                </mxCell>
                <mxCell id="24" value="" style="edgeStyle=none;orthogonalLoop=1;jettySize=auto;html=1;shape=flexArrow;" parent="1" edge="1">
                    <mxGeometry width="80" relative="1" as="geometry">
                        <mxPoint x="413" y="220" as="sourcePoint"/>
                        <mxPoint x="413" y="290" as="targetPoint"/>
                    </mxGeometry>
                </mxCell>
                <mxCell id="27" value="" style="shape=table;startSize=0;container=1;collapsible=0;childLayout=tableLayout;" parent="1" vertex="1">
                    <mxGeometry x="324" y="540" width="180" height="190" as="geometry"/>
                </mxCell>
                <mxCell id="28" value="" style="shape=tableRow;horizontal=0;startSize=0;swimlaneHead=0;swimlaneBody=0;top=0;left=0;bottom=0;right=0;collapsible=0;dropTarget=0;fillColor=none;points=[[0,0.5],[1,0.5]];portConstraint=eastwest;" parent="27" vertex="1">
                    <mxGeometry width="180" height="38" as="geometry"/>
                </mxCell>
                <mxCell id="29" value="EURO 2024" style="shape=partialRectangle;html=1;whiteSpace=wrap;connectable=0;overflow=hidden;fillColor=none;top=0;left=0;bottom=0;right=0;pointerEvents=1;" parent="28" vertex="1">
                    <mxGeometry width="180" height="38" as="geometry">
                        <mxRectangle width="180" height="38" as="alternateBounds"/>
                    </mxGeometry>
                </mxCell>
                <mxCell id="30" value="" style="shape=tableRow;horizontal=0;startSize=0;swimlaneHead=0;swimlaneBody=0;top=0;left=0;bottom=0;right=0;collapsible=0;dropTarget=0;fillColor=none;points=[[0,0.5],[1,0.5]];portConstraint=eastwest;" parent="27" vertex="1">
                    <mxGeometry y="38" width="180" height="76" as="geometry"/>
                </mxCell>
                <mxCell id="31" value="-name: String" style="shape=partialRectangle;html=1;whiteSpace=wrap;connectable=0;overflow=hidden;fillColor=none;top=0;left=0;bottom=0;right=0;pointerEvents=1;align=center;" parent="30" vertex="1">
                    <mxGeometry width="180" height="76" as="geometry">
                        <mxRectangle width="180" height="76" as="alternateBounds"/>
                    </mxGeometry>
                </mxCell>
                <mxCell id="32" value="" style="shape=tableRow;horizontal=0;startSize=0;swimlaneHead=0;swimlaneBody=0;top=0;left=0;bottom=0;right=0;collapsible=0;dropTarget=0;fillColor=none;points=[[0,0.5],[1,0.5]];portConstraint=eastwest;" parent="27" vertex="1">
                    <mxGeometry y="114" width="180" height="76" as="geometry"/>
                </mxCell>
                <mxCell id="33" value="+show: string" style="shape=partialRectangle;html=1;whiteSpace=wrap;connectable=0;overflow=hidden;fillColor=none;top=0;left=0;bottom=0;right=0;pointerEvents=1;" parent="32" vertex="1">
                    <mxGeometry width="180" height="76" as="geometry">
                        <mxRectangle width="180" height="76" as="alternateBounds"/>
                    </mxGeometry>
                </mxCell>
                <mxCell id="34" value="" style="orthogonalLoop=1;jettySize=auto;html=1;shape=link;width=8;" parent="1" edge="1">
                    <mxGeometry width="80" relative="1" as="geometry">
                        <mxPoint x="413" y="480" as="sourcePoint"/>
                        <mxPoint x="413" y="540" as="targetPoint"/>
                    </mxGeometry>
                </mxCell>
                <mxCell id="44" value="" style="edgeStyle=segmentEdgeStyle;endArrow=classic;html=1;curved=0;rounded=0;endSize=8;startSize=8;shape=flexArrow;" parent="1" edge="1">
                    <mxGeometry width="50" height="50" relative="1" as="geometry">
                        <mxPoint x="171" y="780" as="sourcePoint"/>
                        <mxPoint x="415" y="730" as="targetPoint"/>
                    </mxGeometry>
                </mxCell>
                <mxCell id="46" value="" style="endArrow=none;html=1;shape=flexArrow;" parent="1" edge="1">
                    <mxGeometry width="50" height="50" relative="1" as="geometry">
                        <mxPoint x="176" y="845" as="sourcePoint"/>
                        <mxPoint x="176" y="775" as="targetPoint"/>
                    </mxGeometry>
                </mxCell>
                <mxCell id="48" value="" style="edgeStyle=segmentEdgeStyle;endArrow=classic;html=1;curved=0;rounded=0;endSize=8;startSize=8;shape=flexArrow;" parent="1" edge="1">
                    <mxGeometry width="50" height="50" relative="1" as="geometry">
                        <mxPoint x="670" y="780" as="sourcePoint"/>
                        <mxPoint x="414" y="730" as="targetPoint"/>
                    </mxGeometry>
                </mxCell>
                <mxCell id="47" value="" style="endArrow=none;html=1;shape=flexArrow;" parent="1" edge="1">
                    <mxGeometry width="50" height="50" relative="1" as="geometry">
                        <mxPoint x="665" y="845" as="sourcePoint"/>
                        <mxPoint x="665" y="775" as="targetPoint"/>
                    </mxGeometry>
                </mxCell>
                <mxCell id="50" value="" style="endArrow=none;html=1;shape=flexArrow;" parent="1" edge="1">
                    <mxGeometry width="50" height="50" relative="1" as="geometry">
                        <mxPoint x="415" y="840" as="sourcePoint"/>
                        <mxPoint x="415" y="784" as="targetPoint"/>
                        <Array as="points">
                            <mxPoint x="415" y="820"/>
                        </Array>
                    </mxGeometry>
                </mxCell>
                <mxCell id="53" value="" style="shape=table;startSize=0;container=1;collapsible=0;childLayout=tableLayout;" parent="1" vertex="1">
                    <mxGeometry x="85" y="840" width="180" height="190" as="geometry"/>
                </mxCell>
                <mxCell id="54" value="" style="shape=tableRow;horizontal=0;startSize=0;swimlaneHead=0;swimlaneBody=0;top=0;left=0;bottom=0;right=0;collapsible=0;dropTarget=0;fillColor=none;points=[[0,0.5],[1,0.5]];portConstraint=eastwest;" parent="53" vertex="1">
                    <mxGeometry width="180" height="38" as="geometry"/>
                </mxCell>
                <mxCell id="55" value="Equipo" style="shape=partialRectangle;html=1;whiteSpace=wrap;connectable=0;overflow=hidden;fillColor=none;top=0;left=0;bottom=0;right=0;pointerEvents=1;" parent="54" vertex="1">
                    <mxGeometry width="180" height="38" as="geometry">
                        <mxRectangle width="180" height="38" as="alternateBounds"/>
                    </mxGeometry>
                </mxCell>
                <mxCell id="56" value="" style="shape=tableRow;horizontal=0;startSize=0;swimlaneHead=0;swimlaneBody=0;top=0;left=0;bottom=0;right=0;collapsible=0;dropTarget=0;fillColor=none;points=[[0,0.5],[1,0.5]];portConstraint=eastwest;" parent="53" vertex="1">
                    <mxGeometry y="38" width="180" height="76" as="geometry"/>
                </mxCell>
                <mxCell id="57" value="+ name: String&lt;br&gt;&amp;nbsp;+ code: String&lt;br&gt;&amp;nbsp;+ group: String&lt;br&gt;-id: String" style="shape=partialRectangle;html=1;whiteSpace=wrap;connectable=0;overflow=hidden;fillColor=none;top=0;left=0;bottom=0;right=0;pointerEvents=1;align=center;" parent="56" vertex="1">
                    <mxGeometry width="180" height="76" as="geometry">
                        <mxRectangle width="180" height="76" as="alternateBounds"/>
                    </mxGeometry>
                </mxCell>
                <mxCell id="58" value="" style="shape=tableRow;horizontal=0;startSize=0;swimlaneHead=0;swimlaneBody=0;top=0;left=0;bottom=0;right=0;collapsible=0;dropTarget=0;fillColor=none;points=[[0,0.5],[1,0.5]];portConstraint=eastwest;" parent="53" vertex="1">
                    <mxGeometry y="114" width="180" height="76" as="geometry"/>
                </mxCell>
                <mxCell id="59" value="+show: string" style="shape=partialRectangle;html=1;whiteSpace=wrap;connectable=0;overflow=hidden;fillColor=none;top=0;left=0;bottom=0;right=0;pointerEvents=1;" parent="58" vertex="1">
                    <mxGeometry width="180" height="76" as="geometry">
                        <mxRectangle width="180" height="76" as="alternateBounds"/>
                    </mxGeometry>
                </mxCell>
                <mxCell id="60" value="" style="shape=table;startSize=0;container=1;collapsible=0;childLayout=tableLayout;" parent="1" vertex="1">
                    <mxGeometry x="324" y="840" width="180" height="236" as="geometry"/>
                </mxCell>
                <mxCell id="61" value="" style="shape=tableRow;horizontal=0;startSize=0;swimlaneHead=0;swimlaneBody=0;top=0;left=0;bottom=0;right=0;collapsible=0;dropTarget=0;fillColor=none;points=[[0,0.5],[1,0.5]];portConstraint=eastwest;" parent="60" vertex="1">
                    <mxGeometry width="180" height="38" as="geometry"/>
                </mxCell>
                <mxCell id="62" value="Partidos" style="shape=partialRectangle;html=1;whiteSpace=wrap;connectable=0;overflow=hidden;fillColor=none;top=0;left=0;bottom=0;right=0;pointerEvents=1;" parent="61" vertex="1">
                    <mxGeometry width="180" height="38" as="geometry">
                        <mxRectangle width="180" height="38" as="alternateBounds"/>
                    </mxGeometry>
                </mxCell>
                <mxCell id="63" value="" style="shape=tableRow;horizontal=0;startSize=0;swimlaneHead=0;swimlaneBody=0;top=0;left=0;bottom=0;right=0;collapsible=0;dropTarget=0;fillColor=none;points=[[0,0.5],[1,0.5]];portConstraint=eastwest;" parent="60" vertex="1">
                    <mxGeometry y="38" width="180" height="122" as="geometry"/>
                </mxCell>
                <mxCell id="64" value="-number: Int&lt;br&gt;-home: Equipo&lt;br&gt;-away;&lt;br&gt;-date:&lt;br&gt;-match_id:&lt;br&gt;-stadium_id:" style="shape=partialRectangle;html=1;whiteSpace=wrap;connectable=0;overflow=hidden;fillColor=none;top=0;left=0;bottom=0;right=0;pointerEvents=1;align=center;" parent="63" vertex="1">
                    <mxGeometry width="180" height="122" as="geometry">
                        <mxRectangle width="180" height="122" as="alternateBounds"/>
                    </mxGeometry>
                </mxCell>
                <mxCell id="65" value="" style="shape=tableRow;horizontal=0;startSize=0;swimlaneHead=0;swimlaneBody=0;top=0;left=0;bottom=0;right=0;collapsible=0;dropTarget=0;fillColor=none;points=[[0,0.5],[1,0.5]];portConstraint=eastwest;" parent="60" vertex="1">
                    <mxGeometry y="160" width="180" height="76" as="geometry"/>
                </mxCell>
                <mxCell id="66" value="+show: string" style="shape=partialRectangle;html=1;whiteSpace=wrap;connectable=0;overflow=hidden;fillColor=none;top=0;left=0;bottom=0;right=0;pointerEvents=1;" parent="65" vertex="1">
                    <mxGeometry width="180" height="76" as="geometry">
                        <mxRectangle width="180" height="76" as="alternateBounds"/>
                    </mxGeometry>
                </mxCell>
                <mxCell id="67" value="" style="shape=table;startSize=0;container=1;collapsible=0;childLayout=tableLayout;" parent="1" vertex="1">
                    <mxGeometry x="580" y="840" width="180" height="190" as="geometry"/>
                </mxCell>
                <mxCell id="68" value="" style="shape=tableRow;horizontal=0;startSize=0;swimlaneHead=0;swimlaneBody=0;top=0;left=0;bottom=0;right=0;collapsible=0;dropTarget=0;fillColor=none;points=[[0,0.5],[1,0.5]];portConstraint=eastwest;" parent="67" vertex="1">
                    <mxGeometry width="180" height="38" as="geometry"/>
                </mxCell>
                <mxCell id="69" value="Estadios" style="shape=partialRectangle;html=1;whiteSpace=wrap;connectable=0;overflow=hidden;fillColor=none;top=0;left=0;bottom=0;right=0;pointerEvents=1;" parent="68" vertex="1">
                    <mxGeometry width="180" height="38" as="geometry">
                        <mxRectangle width="180" height="38" as="alternateBounds"/>
                    </mxGeometry>
                </mxCell>
                <mxCell id="70" value="" style="shape=tableRow;horizontal=0;startSize=0;swimlaneHead=0;swimlaneBody=0;top=0;left=0;bottom=0;right=0;collapsible=0;dropTarget=0;fillColor=none;points=[[0,0.5],[1,0.5]];portConstraint=eastwest;" parent="67" vertex="1">
                    <mxGeometry y="38" width="180" height="76" as="geometry"/>
                </mxCell>
                <mxCell id="71" value="-name: String" style="shape=partialRectangle;html=1;whiteSpace=wrap;connectable=0;overflow=hidden;fillColor=none;top=0;left=0;bottom=0;right=0;pointerEvents=1;align=center;" parent="70" vertex="1">
                    <mxGeometry width="180" height="76" as="geometry">
                        <mxRectangle width="180" height="76" as="alternateBounds"/>
                    </mxGeometry>
                </mxCell>
                <mxCell id="72" value="" style="shape=tableRow;horizontal=0;startSize=0;swimlaneHead=0;swimlaneBody=0;top=0;left=0;bottom=0;right=0;collapsible=0;dropTarget=0;fillColor=none;points=[[0,0.5],[1,0.5]];portConstraint=eastwest;" parent="67" vertex="1">
                    <mxGeometry y="114" width="180" height="76" as="geometry"/>
                </mxCell>
                <mxCell id="73" value="+show: string" style="shape=partialRectangle;html=1;whiteSpace=wrap;connectable=0;overflow=hidden;fillColor=none;top=0;left=0;bottom=0;right=0;pointerEvents=1;" parent="72" vertex="1">
                    <mxGeometry width="180" height="76" as="geometry">
                        <mxRectangle width="180" height="76" as="alternateBounds"/>
                    </mxGeometry>
                </mxCell>
            </root>
        </mxGraphModel>
    </diagram>
    <diagram id="zhJL8xcTbnxf7BBiUhmd" name="PÃ¡gina-2">
        <mxGraphModel dx="1009" dy="787" grid="1" gridSize="10" guides="1" tooltips="1" connect="1" arrows="1" fold="1" page="1" pageScale="1" pageWidth="827" pageHeight="1169" math="0" shadow="0">
            <root>
                <mxCell id="0"/>
                <mxCell id="1" parent="0"/>
                <mxCell id="XG5FxSsWZN3GAgLM9NIc-1" value="" style="shape=table;startSize=0;container=1;collapsible=0;childLayout=tableLayout;" parent="1" vertex="1">
                    <mxGeometry x="252" y="180" width="120" height="120" as="geometry"/>
                </mxCell>
                <mxCell id="XG5FxSsWZN3GAgLM9NIc-2" value="" style="shape=tableRow;horizontal=0;startSize=0;swimlaneHead=0;swimlaneBody=0;top=0;left=0;bottom=0;right=0;collapsible=0;dropTarget=0;fillColor=none;points=[[0,0.5],[1,0.5]];portConstraint=eastwest;" parent="XG5FxSsWZN3GAgLM9NIc-1" vertex="1">
                    <mxGeometry width="120" height="40" as="geometry"/>
                </mxCell>
                <mxCell id="XG5FxSsWZN3GAgLM9NIc-3" value="ID" style="shape=partialRectangle;html=1;whiteSpace=wrap;connectable=0;overflow=hidden;fillColor=none;top=0;left=0;bottom=0;right=0;pointerEvents=1;" parent="XG5FxSsWZN3GAgLM9NIc-2" vertex="1">
                    <mxGeometry width="120" height="40" as="geometry">
                        <mxRectangle width="120" height="40" as="alternateBounds"/>
                    </mxGeometry>
                </mxCell>
                <mxCell id="XG5FxSsWZN3GAgLM9NIc-4" value="" style="shape=tableRow;horizontal=0;startSize=0;swimlaneHead=0;swimlaneBody=0;top=0;left=0;bottom=0;right=0;collapsible=0;dropTarget=0;fillColor=none;points=[[0,0.5],[1,0.5]];portConstraint=eastwest;" parent="XG5FxSsWZN3GAgLM9NIc-1" vertex="1">
                    <mxGeometry y="40" width="120" height="40" as="geometry"/>
                </mxCell>
                <mxCell id="XG5FxSsWZN3GAgLM9NIc-5" value="-id: string" style="shape=partialRectangle;html=1;whiteSpace=wrap;connectable=0;overflow=hidden;fillColor=none;top=0;left=0;bottom=0;right=0;pointerEvents=1;" parent="XG5FxSsWZN3GAgLM9NIc-4" vertex="1">
                    <mxGeometry width="120" height="40" as="geometry">
                        <mxRectangle width="120" height="40" as="alternateBounds"/>
                    </mxGeometry>
                </mxCell>
                <mxCell id="XG5FxSsWZN3GAgLM9NIc-6" value="" style="shape=tableRow;horizontal=0;startSize=0;swimlaneHead=0;swimlaneBody=0;top=0;left=0;bottom=0;right=0;collapsible=0;dropTarget=0;fillColor=none;points=[[0,0.5],[1,0.5]];portConstraint=eastwest;" parent="XG5FxSsWZN3GAgLM9NIc-1" vertex="1">
                    <mxGeometry y="80" width="120" height="40" as="geometry"/>
                </mxCell>
                <mxCell id="XG5FxSsWZN3GAgLM9NIc-7" value="+buscar()" style="shape=partialRectangle;html=1;whiteSpace=wrap;connectable=0;overflow=hidden;fillColor=none;top=0;left=0;bottom=0;right=0;pointerEvents=1;" parent="XG5FxSsWZN3GAgLM9NIc-6" vertex="1">
                    <mxGeometry width="120" height="40" as="geometry">
                        <mxRectangle width="120" height="40" as="alternateBounds"/>
                    </mxGeometry>
                </mxCell>
                <mxCell id="0aZsszb2OUNxlSAbUGEM-1" value="" style="shape=table;startSize=0;container=1;collapsible=0;childLayout=tableLayout;" parent="1" vertex="1">
                    <mxGeometry x="222" y="650" width="180" height="190" as="geometry"/>
                </mxCell>
                <mxCell id="0aZsszb2OUNxlSAbUGEM-2" value="" style="shape=tableRow;horizontal=0;startSize=0;swimlaneHead=0;swimlaneBody=0;top=0;left=0;bottom=0;right=0;collapsible=0;dropTarget=0;fillColor=none;points=[[0,0.5],[1,0.5]];portConstraint=eastwest;" parent="0aZsszb2OUNxlSAbUGEM-1" vertex="1">
                    <mxGeometry width="180" height="38" as="geometry"/>
                </mxCell>
                <mxCell id="0aZsszb2OUNxlSAbUGEM-3" value="Cliente" style="shape=partialRectangle;html=1;whiteSpace=wrap;connectable=0;overflow=hidden;fillColor=none;top=0;left=0;bottom=0;right=0;pointerEvents=1;" parent="0aZsszb2OUNxlSAbUGEM-2" vertex="1">
                    <mxGeometry width="180" height="38" as="geometry">
                        <mxRectangle width="180" height="38" as="alternateBounds"/>
                    </mxGeometry>
                </mxCell>
                <mxCell id="0aZsszb2OUNxlSAbUGEM-4" value="" style="shape=tableRow;horizontal=0;startSize=0;swimlaneHead=0;swimlaneBody=0;top=0;left=0;bottom=0;right=0;collapsible=0;dropTarget=0;fillColor=none;points=[[0,0.5],[1,0.5]];portConstraint=eastwest;" parent="0aZsszb2OUNxlSAbUGEM-1" vertex="1">
                    <mxGeometry y="38" width="180" height="76" as="geometry"/>
                </mxCell>
                <mxCell id="0aZsszb2OUNxlSAbUGEM-5" value="+ name: String&amp;nbsp;&lt;br&gt;+age : Int&lt;br&gt;+ci = Int" style="shape=partialRectangle;html=1;whiteSpace=wrap;connectable=0;overflow=hidden;fillColor=none;top=0;left=0;bottom=0;right=0;pointerEvents=1;align=center;" parent="0aZsszb2OUNxlSAbUGEM-4" vertex="1">
                    <mxGeometry width="180" height="76" as="geometry">
                        <mxRectangle width="180" height="76" as="alternateBounds"/>
                    </mxGeometry>
                </mxCell>
                <mxCell id="0aZsszb2OUNxlSAbUGEM-6" value="" style="shape=tableRow;horizontal=0;startSize=0;swimlaneHead=0;swimlaneBody=0;top=0;left=0;bottom=0;right=0;collapsible=0;dropTarget=0;fillColor=none;points=[[0,0.5],[1,0.5]];portConstraint=eastwest;" parent="0aZsszb2OUNxlSAbUGEM-1" vertex="1">
                    <mxGeometry y="114" width="180" height="76" as="geometry"/>
                </mxCell>
                <mxCell id="0aZsszb2OUNxlSAbUGEM-7" value="+show: string" style="shape=partialRectangle;html=1;whiteSpace=wrap;connectable=0;overflow=hidden;fillColor=none;top=0;left=0;bottom=0;right=0;pointerEvents=1;" parent="0aZsszb2OUNxlSAbUGEM-6" vertex="1">
                    <mxGeometry width="180" height="76" as="geometry">
                        <mxRectangle width="180" height="76" as="alternateBounds"/>
                    </mxGeometry>
                </mxCell>
                <mxCell id="0aZsszb2OUNxlSAbUGEM-20" value="" style="edgeStyle=segmentEdgeStyle;endArrow=classic;html=1;curved=0;rounded=0;endSize=8;startSize=8;startArrow=none;" parent="1" edge="1">
                    <mxGeometry width="50" height="50" relative="1" as="geometry">
                        <mxPoint x="112" y="410" as="sourcePoint"/>
                        <mxPoint x="312" y="300" as="targetPoint"/>
                        <Array as="points">
                            <mxPoint x="312" y="350"/>
                        </Array>
                    </mxGeometry>
                </mxCell>
                <mxCell id="0aZsszb2OUNxlSAbUGEM-24" value="" style="edgeStyle=segmentEdgeStyle;endArrow=none;html=1;curved=0;rounded=0;endSize=8;startSize=8;" parent="1" edge="1">
                    <mxGeometry width="50" height="50" relative="1" as="geometry">
                        <mxPoint x="112" y="350" as="sourcePoint"/>
                        <mxPoint x="112" y="350" as="targetPoint"/>
                    </mxGeometry>
                </mxCell>
                <mxCell id="0aZsszb2OUNxlSAbUGEM-29" value="" style="endArrow=none;html=1;" parent="1" edge="1">
                    <mxGeometry width="50" height="50" relative="1" as="geometry">
                        <mxPoint x="312" y="410" as="sourcePoint"/>
                        <mxPoint x="311.5" y="350" as="targetPoint"/>
                    </mxGeometry>
                </mxCell>
                <mxCell id="0aZsszb2OUNxlSAbUGEM-32" value="" style="edgeStyle=segmentEdgeStyle;endArrow=classic;html=1;curved=0;rounded=0;endSize=8;startSize=8;startArrow=none;" parent="1" edge="1">
                    <mxGeometry width="50" height="50" relative="1" as="geometry">
                        <mxPoint x="512" y="410" as="sourcePoint"/>
                        <mxPoint x="312" y="300" as="targetPoint"/>
                        <Array as="points">
                            <mxPoint x="312" y="350"/>
                        </Array>
                    </mxGeometry>
                </mxCell>
                <mxCell id="0aZsszb2OUNxlSAbUGEM-33" value="" style="shape=table;startSize=0;container=1;collapsible=0;childLayout=tableLayout;" parent="1" vertex="1">
                    <mxGeometry x="52" y="410" width="120" height="160" as="geometry"/>
                </mxCell>
                <mxCell id="0aZsszb2OUNxlSAbUGEM-34" value="" style="shape=tableRow;horizontal=0;startSize=0;swimlaneHead=0;swimlaneBody=0;top=0;left=0;bottom=0;right=0;collapsible=0;dropTarget=0;fillColor=none;points=[[0,0.5],[1,0.5]];portConstraint=eastwest;" parent="0aZsszb2OUNxlSAbUGEM-33" vertex="1">
                    <mxGeometry width="120" height="43" as="geometry"/>
                </mxCell>
                <mxCell id="0aZsszb2OUNxlSAbUGEM-35" value="Equipos" style="shape=partialRectangle;html=1;whiteSpace=wrap;connectable=0;overflow=hidden;fillColor=none;top=0;left=0;bottom=0;right=0;pointerEvents=1;" parent="0aZsszb2OUNxlSAbUGEM-34" vertex="1">
                    <mxGeometry width="120" height="43" as="geometry">
                        <mxRectangle width="120" height="43" as="alternateBounds"/>
                    </mxGeometry>
                </mxCell>
                <mxCell id="0aZsszb2OUNxlSAbUGEM-36" value="" style="shape=tableRow;horizontal=0;startSize=0;swimlaneHead=0;swimlaneBody=0;top=0;left=0;bottom=0;right=0;collapsible=0;dropTarget=0;fillColor=none;points=[[0,0.5],[1,0.5]];portConstraint=eastwest;" parent="0aZsszb2OUNxlSAbUGEM-33" vertex="1">
                    <mxGeometry y="43" width="120" height="74" as="geometry"/>
                </mxCell>
                <mxCell id="0aZsszb2OUNxlSAbUGEM-37" value="&lt;font style=&quot;font-size: 10px;&quot;&gt;+ name: String&lt;br&gt;&amp;nbsp;+ code: String&lt;br&gt;&amp;nbsp;+ group: String&lt;br&gt;&lt;/font&gt;" style="shape=partialRectangle;html=1;whiteSpace=wrap;connectable=0;overflow=hidden;fillColor=none;top=0;left=0;bottom=0;right=0;pointerEvents=1;" parent="0aZsszb2OUNxlSAbUGEM-36" vertex="1">
                    <mxGeometry width="120" height="74" as="geometry">
                        <mxRectangle width="120" height="74" as="alternateBounds"/>
                    </mxGeometry>
                </mxCell>
                <mxCell id="0aZsszb2OUNxlSAbUGEM-38" value="" style="shape=tableRow;horizontal=0;startSize=0;swimlaneHead=0;swimlaneBody=0;top=0;left=0;bottom=0;right=0;collapsible=0;dropTarget=0;fillColor=none;points=[[0,0.5],[1,0.5]];portConstraint=eastwest;" parent="0aZsszb2OUNxlSAbUGEM-33" vertex="1">
                    <mxGeometry y="117" width="120" height="43" as="geometry"/>
                </mxCell>
                <mxCell id="0aZsszb2OUNxlSAbUGEM-39" value="&lt;font style=&quot;font-size: 10px;&quot;&gt;+show: string&lt;br&gt;+buscar()&lt;/font&gt;" style="shape=partialRectangle;html=1;whiteSpace=wrap;connectable=0;overflow=hidden;fillColor=none;top=0;left=0;bottom=0;right=0;pointerEvents=1;align=center;" parent="0aZsszb2OUNxlSAbUGEM-38" vertex="1">
                    <mxGeometry width="120" height="43" as="geometry">
                        <mxRectangle width="120" height="43" as="alternateBounds"/>
                    </mxGeometry>
                </mxCell>
                <mxCell id="g8a7K7I_bTxh5tYEcGmk-1" value="" style="shape=table;startSize=0;container=1;collapsible=0;childLayout=tableLayout;" parent="1" vertex="1">
                    <mxGeometry x="242" y="410" width="140" height="160" as="geometry"/>
                </mxCell>
                <mxCell id="g8a7K7I_bTxh5tYEcGmk-2" value="" style="shape=tableRow;horizontal=0;startSize=0;swimlaneHead=0;swimlaneBody=0;top=0;left=0;bottom=0;right=0;collapsible=0;dropTarget=0;fillColor=none;points=[[0,0.5],[1,0.5]];portConstraint=eastwest;" parent="g8a7K7I_bTxh5tYEcGmk-1" vertex="1">
                    <mxGeometry width="140" height="22" as="geometry"/>
                </mxCell>
                <mxCell id="g8a7K7I_bTxh5tYEcGmk-3" value="Partidos" style="shape=partialRectangle;html=1;whiteSpace=wrap;connectable=0;overflow=hidden;fillColor=none;top=0;left=0;bottom=0;right=0;pointerEvents=1;" parent="g8a7K7I_bTxh5tYEcGmk-2" vertex="1">
                    <mxGeometry width="140" height="22" as="geometry">
                        <mxRectangle width="140" height="22" as="alternateBounds"/>
                    </mxGeometry>
                </mxCell>
                <mxCell id="g8a7K7I_bTxh5tYEcGmk-4" value="" style="shape=tableRow;horizontal=0;startSize=0;swimlaneHead=0;swimlaneBody=0;top=0;left=0;bottom=0;right=0;collapsible=0;dropTarget=0;fillColor=none;points=[[0,0.5],[1,0.5]];portConstraint=eastwest;" parent="g8a7K7I_bTxh5tYEcGmk-1" vertex="1">
                    <mxGeometry y="22" width="140" height="92" as="geometry"/>
                </mxCell>
                <mxCell id="g8a7K7I_bTxh5tYEcGmk-5" value="&lt;font style=&quot;font-size: 10px;&quot;&gt;-number: Int&lt;br&gt;-home: Equipo&lt;br&gt;-away;&lt;br&gt;-date:&lt;br&gt;&lt;/font&gt;" style="shape=partialRectangle;html=1;whiteSpace=wrap;connectable=0;overflow=hidden;fillColor=none;top=0;left=0;bottom=0;right=0;pointerEvents=1;align=center;" parent="g8a7K7I_bTxh5tYEcGmk-4" vertex="1">
                    <mxGeometry width="140" height="92" as="geometry">
                        <mxRectangle width="140" height="92" as="alternateBounds"/>
                    </mxGeometry>
                </mxCell>
                <mxCell id="g8a7K7I_bTxh5tYEcGmk-6" value="" style="shape=tableRow;horizontal=0;startSize=0;swimlaneHead=0;swimlaneBody=0;top=0;left=0;bottom=0;right=0;collapsible=0;dropTarget=0;fillColor=none;points=[[0,0.5],[1,0.5]];portConstraint=eastwest;" parent="g8a7K7I_bTxh5tYEcGmk-1" vertex="1">
                    <mxGeometry y="114" width="140" height="46" as="geometry"/>
                </mxCell>
                <mxCell id="g8a7K7I_bTxh5tYEcGmk-7" value="&lt;font style=&quot;font-size: 10px;&quot;&gt;+show: string&lt;br&gt;+buscar()&lt;br&gt;&lt;/font&gt;" style="shape=partialRectangle;html=1;whiteSpace=wrap;connectable=0;overflow=hidden;fillColor=none;top=0;left=0;bottom=0;right=0;pointerEvents=1;" parent="g8a7K7I_bTxh5tYEcGmk-6" vertex="1">
                    <mxGeometry width="140" height="46" as="geometry">
                        <mxRectangle width="140" height="46" as="alternateBounds"/>
                    </mxGeometry>
                </mxCell>
                <mxCell id="DwcbbFc9roTMtYkS1cRl-1" value="" style="shape=table;startSize=0;container=1;collapsible=0;childLayout=tableLayout;" parent="1" vertex="1">
                    <mxGeometry x="437" y="410" width="150" height="160" as="geometry"/>
                </mxCell>
                <mxCell id="DwcbbFc9roTMtYkS1cRl-2" value="" style="shape=tableRow;horizontal=0;startSize=0;swimlaneHead=0;swimlaneBody=0;top=0;left=0;bottom=0;right=0;collapsible=0;dropTarget=0;fillColor=none;points=[[0,0.5],[1,0.5]];portConstraint=eastwest;" parent="DwcbbFc9roTMtYkS1cRl-1" vertex="1">
                    <mxGeometry width="150" height="32" as="geometry"/>
                </mxCell>
                <mxCell id="DwcbbFc9roTMtYkS1cRl-3" value="Estadios" style="shape=partialRectangle;html=1;whiteSpace=wrap;connectable=0;overflow=hidden;fillColor=none;top=0;left=0;bottom=0;right=0;pointerEvents=1;" parent="DwcbbFc9roTMtYkS1cRl-2" vertex="1">
                    <mxGeometry width="150" height="32" as="geometry">
                        <mxRectangle width="150" height="32" as="alternateBounds"/>
                    </mxGeometry>
                </mxCell>
                <mxCell id="DwcbbFc9roTMtYkS1cRl-4" value="" style="shape=tableRow;horizontal=0;startSize=0;swimlaneHead=0;swimlaneBody=0;top=0;left=0;bottom=0;right=0;collapsible=0;dropTarget=0;fillColor=none;points=[[0,0.5],[1,0.5]];portConstraint=eastwest;" parent="DwcbbFc9roTMtYkS1cRl-1" vertex="1">
                    <mxGeometry y="32" width="150" height="64" as="geometry"/>
                </mxCell>
                <mxCell id="DwcbbFc9roTMtYkS1cRl-5" value="&lt;font style=&quot;font-size: 10px;&quot;&gt;-name: String&lt;/font&gt;" style="shape=partialRectangle;html=1;whiteSpace=wrap;connectable=0;overflow=hidden;fillColor=none;top=0;left=0;bottom=0;right=0;pointerEvents=1;align=center;" parent="DwcbbFc9roTMtYkS1cRl-4" vertex="1">
                    <mxGeometry width="150" height="64" as="geometry">
                        <mxRectangle width="150" height="64" as="alternateBounds"/>
                    </mxGeometry>
                </mxCell>
                <mxCell id="DwcbbFc9roTMtYkS1cRl-6" value="" style="shape=tableRow;horizontal=0;startSize=0;swimlaneHead=0;swimlaneBody=0;top=0;left=0;bottom=0;right=0;collapsible=0;dropTarget=0;fillColor=none;points=[[0,0.5],[1,0.5]];portConstraint=eastwest;" parent="DwcbbFc9roTMtYkS1cRl-1" vertex="1">
                    <mxGeometry y="96" width="150" height="64" as="geometry"/>
                </mxCell>
                <mxCell id="DwcbbFc9roTMtYkS1cRl-7" value="&lt;font style=&quot;font-size: 10px;&quot;&gt;+show: string&lt;br&gt;+buscar()&lt;/font&gt;" style="shape=partialRectangle;html=1;whiteSpace=wrap;connectable=0;overflow=hidden;fillColor=none;top=0;left=0;bottom=0;right=0;pointerEvents=1;" parent="DwcbbFc9roTMtYkS1cRl-6" vertex="1">
                    <mxGeometry width="150" height="64" as="geometry">
                        <mxRectangle width="150" height="64" as="alternateBounds"/>
                    </mxGeometry>
                </mxCell>
                <mxCell id="DwcbbFc9roTMtYkS1cRl-26" value="" style="group" parent="1" vertex="1" connectable="0">
                    <mxGeometry x="382" y="481" width="54" height="15" as="geometry"/>
                </mxCell>
                <mxCell id="DwcbbFc9roTMtYkS1cRl-23" value="" style="rhombus;whiteSpace=wrap;html=1;fontSize=10;fillColor=#000000;" parent="DwcbbFc9roTMtYkS1cRl-26" vertex="1">
                    <mxGeometry x="38.460431654676256" width="15.539568345323744" height="15" as="geometry"/>
                </mxCell>
                <mxCell id="DwcbbFc9roTMtYkS1cRl-24" value="" style="endArrow=none;html=1;" parent="DwcbbFc9roTMtYkS1cRl-26" edge="1">
                    <mxGeometry width="50" height="50" relative="1" as="geometry">
                        <mxPoint y="6.9950000000000045" as="sourcePoint"/>
                        <mxPoint x="38.46043165467627" y="6.9950000000000045" as="targetPoint"/>
                    </mxGeometry>
                </mxCell>
                <mxCell id="DwcbbFc9roTMtYkS1cRl-28" value="" style="group" parent="1" vertex="1" connectable="0">
                    <mxGeometry x="172" y="482.5" width="70" height="15" as="geometry"/>
                </mxCell>
                <mxCell id="DwcbbFc9roTMtYkS1cRl-10" value="" style="rhombus;whiteSpace=wrap;html=1;fontSize=10;fillColor=#000000;" parent="DwcbbFc9roTMtYkS1cRl-28" vertex="1">
                    <mxGeometry width="20.143884892086334" height="15" as="geometry"/>
                </mxCell>
                <mxCell id="DwcbbFc9roTMtYkS1cRl-17" value="" style="endArrow=none;html=1;" parent="DwcbbFc9roTMtYkS1cRl-28" edge="1">
                    <mxGeometry width="50" height="50" relative="1" as="geometry">
                        <mxPoint x="20.143884892086362" y="7.125" as="sourcePoint"/>
                        <mxPoint x="70" y="7.125" as="targetPoint"/>
                    </mxGeometry>
                </mxCell>
                <mxCell id="DwcbbFc9roTMtYkS1cRl-29" value="" style="group" parent="1" vertex="1" connectable="0">
                    <mxGeometry x="588" y="479" width="70" height="15" as="geometry"/>
                </mxCell>
                <mxCell id="DwcbbFc9roTMtYkS1cRl-30" value="" style="rhombus;whiteSpace=wrap;html=1;fontSize=10;fillColor=#000000;" parent="DwcbbFc9roTMtYkS1cRl-29" vertex="1">
                    <mxGeometry width="20.143884892086334" height="15" as="geometry"/>
                </mxCell>
                <mxCell id="DwcbbFc9roTMtYkS1cRl-31" value="" style="endArrow=none;html=1;" parent="DwcbbFc9roTMtYkS1cRl-29" edge="1">
                    <mxGeometry width="50" height="50" relative="1" as="geometry">
                        <mxPoint x="20.143884892086362" y="7.125" as="sourcePoint"/>
                        <mxPoint x="70" y="7.125" as="targetPoint"/>
                    </mxGeometry>
                </mxCell>
                <mxCell id="DwcbbFc9roTMtYkS1cRl-32" value="" style="shape=table;startSize=0;container=1;collapsible=0;childLayout=tableLayout;" parent="1" vertex="1">
                    <mxGeometry x="658" y="410" width="150" height="160" as="geometry"/>
                </mxCell>
                <mxCell id="DwcbbFc9roTMtYkS1cRl-33" value="" style="shape=tableRow;horizontal=0;startSize=0;swimlaneHead=0;swimlaneBody=0;top=0;left=0;bottom=0;right=0;collapsible=0;dropTarget=0;fillColor=none;points=[[0,0.5],[1,0.5]];portConstraint=eastwest;" parent="DwcbbFc9roTMtYkS1cRl-32" vertex="1">
                    <mxGeometry width="150" height="32" as="geometry"/>
                </mxCell>
                <mxCell id="DwcbbFc9roTMtYkS1cRl-34" value="Restaurantes" style="shape=partialRectangle;html=1;whiteSpace=wrap;connectable=0;overflow=hidden;fillColor=none;top=0;left=0;bottom=0;right=0;pointerEvents=1;" parent="DwcbbFc9roTMtYkS1cRl-33" vertex="1">
                    <mxGeometry width="150" height="32" as="geometry">
                        <mxRectangle width="150" height="32" as="alternateBounds"/>
                    </mxGeometry>
                </mxCell>
                <mxCell id="DwcbbFc9roTMtYkS1cRl-35" value="" style="shape=tableRow;horizontal=0;startSize=0;swimlaneHead=0;swimlaneBody=0;top=0;left=0;bottom=0;right=0;collapsible=0;dropTarget=0;fillColor=none;points=[[0,0.5],[1,0.5]];portConstraint=eastwest;" parent="DwcbbFc9roTMtYkS1cRl-32" vertex="1">
                    <mxGeometry y="32" width="150" height="64" as="geometry"/>
                </mxCell>
                <mxCell id="DwcbbFc9roTMtYkS1cRl-36" value="&lt;font style=&quot;font-size: 10px;&quot;&gt;-name: String&lt;br&gt;-products: string&lt;br&gt;&lt;/font&gt;" style="shape=partialRectangle;html=1;whiteSpace=wrap;connectable=0;overflow=hidden;fillColor=none;top=0;left=0;bottom=0;right=0;pointerEvents=1;align=center;" parent="DwcbbFc9roTMtYkS1cRl-35" vertex="1">
                    <mxGeometry width="150" height="64" as="geometry">
                        <mxRectangle width="150" height="64" as="alternateBounds"/>
                    </mxGeometry>
                </mxCell>
                <mxCell id="DwcbbFc9roTMtYkS1cRl-37" value="" style="shape=tableRow;horizontal=0;startSize=0;swimlaneHead=0;swimlaneBody=0;top=0;left=0;bottom=0;right=0;collapsible=0;dropTarget=0;fillColor=none;points=[[0,0.5],[1,0.5]];portConstraint=eastwest;" parent="DwcbbFc9roTMtYkS1cRl-32" vertex="1">
                    <mxGeometry y="96" width="150" height="64" as="geometry"/>
                </mxCell>
                <mxCell id="DwcbbFc9roTMtYkS1cRl-38" value="&lt;font style=&quot;font-size: 10px;&quot;&gt;+show: string&lt;br&gt;+buscar()&lt;/font&gt;" style="shape=partialRectangle;html=1;whiteSpace=wrap;connectable=0;overflow=hidden;fillColor=none;top=0;left=0;bottom=0;right=0;pointerEvents=1;" parent="DwcbbFc9roTMtYkS1cRl-37" vertex="1">
                    <mxGeometry width="150" height="64" as="geometry">
                        <mxRectangle width="150" height="64" as="alternateBounds"/>
                    </mxGeometry>
                </mxCell>
                <mxCell id="DwcbbFc9roTMtYkS1cRl-40" value="" style="endArrow=classic;html=1;fontSize=10;" parent="1" edge="1">
                    <mxGeometry width="50" height="50" relative="1" as="geometry">
                        <mxPoint x="732.5" y="640" as="sourcePoint"/>
                        <mxPoint x="732.5" y="570" as="targetPoint"/>
                    </mxGeometry>
                </mxCell>
                <mxCell id="DwcbbFc9roTMtYkS1cRl-41" value="" style="shape=table;startSize=0;container=1;collapsible=0;childLayout=tableLayout;" parent="1" vertex="1">
                    <mxGeometry x="658" y="640" width="150" height="184" as="geometry"/>
                </mxCell>
                <mxCell id="DwcbbFc9roTMtYkS1cRl-42" value="" style="shape=tableRow;horizontal=0;startSize=0;swimlaneHead=0;swimlaneBody=0;top=0;left=0;bottom=0;right=0;collapsible=0;dropTarget=0;fillColor=none;points=[[0,0.5],[1,0.5]];portConstraint=eastwest;" parent="DwcbbFc9roTMtYkS1cRl-41" vertex="1">
                    <mxGeometry width="150" height="32" as="geometry"/>
                </mxCell>
                <mxCell id="DwcbbFc9roTMtYkS1cRl-43" value="Productos" style="shape=partialRectangle;html=1;whiteSpace=wrap;connectable=0;overflow=hidden;fillColor=none;top=0;left=0;bottom=0;right=0;pointerEvents=1;" parent="DwcbbFc9roTMtYkS1cRl-42" vertex="1">
                    <mxGeometry width="150" height="32" as="geometry">
                        <mxRectangle width="150" height="32" as="alternateBounds"/>
                    </mxGeometry>
                </mxCell>
                <mxCell id="DwcbbFc9roTMtYkS1cRl-44" value="" style="shape=tableRow;horizontal=0;startSize=0;swimlaneHead=0;swimlaneBody=0;top=0;left=0;bottom=0;right=0;collapsible=0;dropTarget=0;fillColor=none;points=[[0,0.5],[1,0.5]];portConstraint=eastwest;" parent="DwcbbFc9roTMtYkS1cRl-41" vertex="1">
                    <mxGeometry y="32" width="150" height="88" as="geometry"/>
                </mxCell>
                <mxCell id="DwcbbFc9roTMtYkS1cRl-45" value="&lt;font style=&quot;font-size: 10px;&quot;&gt;-product_name: String&lt;br&gt;+quantity: Int&lt;br&gt;-price: Int&lt;br&gt;+stock: Int&lt;br&gt;-aditional_info: String&lt;br&gt;&lt;/font&gt;" style="shape=partialRectangle;html=1;whiteSpace=wrap;connectable=0;overflow=hidden;fillColor=none;top=0;left=0;bottom=0;right=0;pointerEvents=1;align=center;" parent="DwcbbFc9roTMtYkS1cRl-44" vertex="1">
                    <mxGeometry width="150" height="88" as="geometry">
                        <mxRectangle width="150" height="88" as="alternateBounds"/>
                    </mxGeometry>
                </mxCell>
                <mxCell id="DwcbbFc9roTMtYkS1cRl-46" value="" style="shape=tableRow;horizontal=0;startSize=0;swimlaneHead=0;swimlaneBody=0;top=0;left=0;bottom=0;right=0;collapsible=0;dropTarget=0;fillColor=none;points=[[0,0.5],[1,0.5]];portConstraint=eastwest;" parent="DwcbbFc9roTMtYkS1cRl-41" vertex="1">
                    <mxGeometry y="120" width="150" height="64" as="geometry"/>
                </mxCell>
                <mxCell id="DwcbbFc9roTMtYkS1cRl-47" value="&lt;font style=&quot;font-size: 10px;&quot;&gt;+show: string&lt;br&gt;+buscar()&lt;/font&gt;" style="shape=partialRectangle;html=1;whiteSpace=wrap;connectable=0;overflow=hidden;fillColor=none;top=0;left=0;bottom=0;right=0;pointerEvents=1;" parent="DwcbbFc9roTMtYkS1cRl-46" vertex="1">
                    <mxGeometry width="150" height="64" as="geometry">
                        <mxRectangle width="150" height="64" as="alternateBounds"/>
                    </mxGeometry>
                </mxCell>
                <mxCell id="DwcbbFc9roTMtYkS1cRl-49" value="" style="shape=partialRectangle;whiteSpace=wrap;html=1;bottom=0;right=0;fillColor=none;fontSize=10;rotation=-90;" parent="1" vertex="1">
                    <mxGeometry x="182.5" y="497.5" width="50" height="195" as="geometry"/>
                </mxCell>
                <mxCell id="DwcbbFc9roTMtYkS1cRl-51" value="" style="shape=partialRectangle;whiteSpace=wrap;html=1;bottom=0;right=0;fillColor=none;fontSize=10;rotation=-180;" parent="1" vertex="1">
                    <mxGeometry x="300" y="570" width="210" height="50" as="geometry"/>
                </mxCell>
                <mxCell id="DwcbbFc9roTMtYkS1cRl-54" value="" style="endArrow=none;html=1;fontSize=10;" parent="1" edge="1">
                    <mxGeometry width="50" height="50" relative="1" as="geometry">
                        <mxPoint x="312" y="650" as="sourcePoint"/>
                        <mxPoint x="311.5" y="570" as="targetPoint"/>
                    </mxGeometry>
                </mxCell>
                <mxCell id="DwcbbFc9roTMtYkS1cRl-58" value="" style="rhombus;whiteSpace=wrap;html=1;fontSize=10;fillColor=#000000;" parent="1" vertex="1">
                    <mxGeometry x="298" y="841" width="28" height="30" as="geometry"/>
                </mxCell>
                <mxCell id="DwcbbFc9roTMtYkS1cRl-59" value="" style="endArrow=none;html=1;fontSize=10;" parent="1" edge="1">
                    <mxGeometry width="50" height="50" relative="1" as="geometry">
                        <mxPoint x="311.66" y="930" as="sourcePoint"/>
                        <mxPoint x="311.66" y="870" as="targetPoint"/>
                    </mxGeometry>
                </mxCell>
                <mxCell id="DwcbbFc9roTMtYkS1cRl-60" value="" style="shape=table;startSize=0;container=1;collapsible=0;childLayout=tableLayout;" parent="1" vertex="1">
                    <mxGeometry x="222" y="930" width="180" height="190" as="geometry"/>
                </mxCell>
                <mxCell id="DwcbbFc9roTMtYkS1cRl-61" value="" style="shape=tableRow;horizontal=0;startSize=0;swimlaneHead=0;swimlaneBody=0;top=0;left=0;bottom=0;right=0;collapsible=0;dropTarget=0;fillColor=none;points=[[0,0.5],[1,0.5]];portConstraint=eastwest;" parent="DwcbbFc9roTMtYkS1cRl-60" vertex="1">
                    <mxGeometry width="180" height="38" as="geometry"/>
                </mxCell>
                <mxCell id="DwcbbFc9roTMtYkS1cRl-62" value="Entrada" style="shape=partialRectangle;html=1;whiteSpace=wrap;connectable=0;overflow=hidden;fillColor=none;top=0;left=0;bottom=0;right=0;pointerEvents=1;" parent="DwcbbFc9roTMtYkS1cRl-61" vertex="1">
                    <mxGeometry width="180" height="38" as="geometry">
                        <mxRectangle width="180" height="38" as="alternateBounds"/>
                    </mxGeometry>
                </mxCell>
                <mxCell id="DwcbbFc9roTMtYkS1cRl-63" value="" style="shape=tableRow;horizontal=0;startSize=0;swimlaneHead=0;swimlaneBody=0;top=0;left=0;bottom=0;right=0;collapsible=0;dropTarget=0;fillColor=none;points=[[0,0.5],[1,0.5]];portConstraint=eastwest;" parent="DwcbbFc9roTMtYkS1cRl-60" vertex="1">
                    <mxGeometry y="38" width="180" height="76" as="geometry"/>
                </mxCell>
                <mxCell id="DwcbbFc9roTMtYkS1cRl-64" value="+ name: String&amp;nbsp;&lt;br&gt;+age : Int&lt;br&gt;+ci = Int" style="shape=partialRectangle;html=1;whiteSpace=wrap;connectable=0;overflow=hidden;fillColor=none;top=0;left=0;bottom=0;right=0;pointerEvents=1;align=center;" parent="DwcbbFc9roTMtYkS1cRl-63" vertex="1">
                    <mxGeometry width="180" height="76" as="geometry">
                        <mxRectangle width="180" height="76" as="alternateBounds"/>
                    </mxGeometry>
                </mxCell>
                <mxCell id="DwcbbFc9roTMtYkS1cRl-65" value="" style="shape=tableRow;horizontal=0;startSize=0;swimlaneHead=0;swimlaneBody=0;top=0;left=0;bottom=0;right=0;collapsible=0;dropTarget=0;fillColor=none;points=[[0,0.5],[1,0.5]];portConstraint=eastwest;" parent="DwcbbFc9roTMtYkS1cRl-60" vertex="1">
                    <mxGeometry y="114" width="180" height="76" as="geometry"/>
                </mxCell>
                <mxCell id="DwcbbFc9roTMtYkS1cRl-66" value="+show: string" style="shape=partialRectangle;html=1;whiteSpace=wrap;connectable=0;overflow=hidden;fillColor=none;top=0;left=0;bottom=0;right=0;pointerEvents=1;" parent="DwcbbFc9roTMtYkS1cRl-65" vertex="1">
                    <mxGeometry width="180" height="76" as="geometry">
                        <mxRectangle width="180" height="76" as="alternateBounds"/>
                    </mxGeometry>
                </mxCell>
            </root>
        </mxGraphModel>
    </diagram>
</mxfile>